<svg width="32" height="32" viewBox="0 0 32 32" fill="none" xmlns="http://www.w3.org/2000/svg" class="menu">
    <path fill-rule="evenodd" clip-rule="evenodd"
          d="M7 12C7 7.02944 11.0294 3 16 3C20.9706 3 25 7.02944 25 12V21.3333C25 21.8856 24.5523 22.3333 24 22.3333C23.4477 22.3333 23 21.8856 23 21.3333V12C23 8.13401 19.866 5 16 5C12.134 5 9 8.13401 9 12V22.6667C9 25.0599 10.9401 27 13.3333 27C15.7266 27 17.6667 25.0599 17.6667 22.6667V13.3333C17.6667 12.4129 16.9205 11.6667 16 11.6667C15.0795 11.6667 14.3333 12.4129 14.3333 13.3333V21.3333C14.3333 21.8856 13.8856 22.3333 13.3333 22.3333C12.781 22.3333 12.3333 21.8856 12.3333 21.3333V13.3333C12.3333 11.3083 13.975 9.66667 16 9.66667C18.025 9.66667 19.6667 11.3083 19.6667 13.3333V22.6667C19.6667 26.1645 16.8311 29 13.3333 29C9.83553 29 7 26.1645 7 22.6667V12Z"
          fill="#D1D2D3"/>
</svg>